# xmcd
#
# Track frame offsets:
#	150
#	18347
#	33017
#	42765
#	56445
#	71147
#	90042
#	108579
#	126260
#	142402
#	158412
#	178867
#	196152
#	209542
#	222090
#	231677
#
# Disc length: 3268 seconds
#
# Revision: 2
# Processed by: cddbd v1.5.1PL0 Copyright (c) Steve Scherf et al.
# Submitted via: audiograbber 1.83.01
#
DISCID=e20cc210
DTITLE=Various Artist - The Winners 2000 Disk2
DYEAR=2000
DGENRE=Country
TTITLE0=Kasey Chambers - Cry Like A Baby
TTITLE1=Paul Kelly with Uncle Bill - Until Death Do Them Part
TTITLE2=Bill and Audrey - Looking Back To See
TTITLE3=Slim Dusty - Abalinga Mail
TTITLE4=Andrew Clermont and Parris Macleod - Reeling In The Big One
TTITLE5=The Bushwackers - This Is The Place For Me
TTITLE6=Eric Bogle - Jingle Jangle
TTITLE7=Tania Kernaghan - When I Ride
TTITLE8=John Williamson - Three Sons
TTITLE9=Jane Saunders - Outbound Plane
TTITLE10=The Flood - Don't Look Back At Me
TTITLE11=Norma O'Hara Murphy - Fresh Horses
TTITLE12=Josh Arnold - It's Fun To Be A Cowboy
TTITLE13=The Sparnetts - Rollin' Along
TTITLE14=Slim Dusty with the Travelling Country Band - Along The Road To Nulla 
TTITLE14=Nulla
TTITLE15=Lindsay Butler - Cunnamulla Fella
EXTD=YEAR: 2000
EXTT0=
EXTT1=
EXTT2=
EXTT3=
EXTT4=
EXTT5=
EXTT6=
EXTT7=
EXTT8=
EXTT9=
EXTT10=
EXTT11=
EXTT12=
EXTT13=
EXTT14=
EXTT15=
PLAYORDER=
